<svg xmlns="http://www.w3.org/2000/svg" width="1600" height="900" viewBox="0 0 1600 900">
  <defs>
    <linearGradient id="bg" x1="0" y1="0" x2="1" y2="1">
      <stop offset="0" stop-color="#7c5cff" stop-opacity="0.28"/>
      <stop offset="1" stop-color="#30d0ff" stop-opacity="0.18"/>
    </linearGradient>
    <linearGradient id="line" x1="0" y1="0" x2="1" y2="0">
      <stop offset="0" stop-color="#ffffff" stop-opacity="0.78"/>
      <stop offset="1" stop-color="#ffffff" stop-opacity="0.22"/>
    </linearGradient>
  </defs>
  <rect width="1600" height="900" rx="46" fill="#0b1020"/>
  <rect width="1600" height="900" rx="46" fill="url(#bg)"/>

  <g opacity="0.22" stroke="url(#line)" stroke-width="3" fill="none">
    <path d="M160 610 L420 610 L510 540 L1090 540 L1180 610 L1440 610" />
    <path d="M440 610 L520 680 L1080 680 L1160 610" />
    <rect x="560" y="455" width="480" height="90" rx="14" />
    <path d="M720 455 L720 680" />
    <path d="M880 455 L880 680" />
  </g>

  <g fill="rgba(255,255,255,0.12)" stroke="rgba(255,255,255,0.18)" stroke-width="2">
    <circle cx="420" cy="680" r="64" />
    <circle cx="520" cy="680" r="64" />
    <circle cx="1080" cy="680" r="64" />
    <circle cx="1180" cy="680" r="64" />
  </g>

  <g font-family="Inter, system-ui, sans-serif" text-anchor="middle">
    <text x="800" y="170" fill="rgba(255,255,255,0.88)" font-size="42" font-weight="800">
      Rover photo placeholder
    </text>
    <text x="800" y="220" fill="rgba(255,255,255,0.58)" font-size="22">
      Replace with: assets/rover.jpg (or .png)
    </text>
    <text x="800" y="270" fill="rgba(255,255,255,0.50)" font-size="18">
      Tip: use a wide shot showing the frame + drivetrain
    </text>
  </g>
</svg>
